<svg xmlns="http://www.w3.org/2000/svg" xmlns:xlink="http://www.w3.org/1999/xlink" width="500" zoomAndPan="magnify" viewBox="0 0 375 374.999991" height="500" preserveAspectRatio="xMidYMid meet" version="1.0"><defs><g/><clipPath id="2a2ba1a54e"><path d="M 167.304688 114.308594 L 254.304688 114.308594 L 254.304688 193.058594 L 167.304688 193.058594 Z M 167.304688 114.308594 " clip-rule="nonzero"/></clipPath></defs><rect x="-37.5" width="450" fill="#ffffff" y="-37.499999" height="449.999989" fill-opacity="1"/><rect x="-37.5" width="450" fill="#ffffff" y="-37.499999" height="449.999989" fill-opacity="1"/><g clip-path="url(#2a2ba1a54e)"><path fill="#05b0fc" d="M 231.683594 122.644531 L 212.992188 122.644531 L 212.992188 116.414062 C 212.992188 116.136719 212.9375 115.875 212.832031 115.617188 C 212.726562 115.363281 212.578125 115.140625 212.382812 114.945312 C 212.1875 114.75 211.964844 114.601562 211.710938 114.496094 C 211.457031 114.390625 211.191406 114.335938 210.914062 114.335938 C 210.640625 114.335938 210.375 114.390625 210.121094 114.496094 C 209.867188 114.601562 209.640625 114.75 209.445312 114.945312 C 209.25 115.140625 209.101562 115.363281 208.996094 115.617188 C 208.890625 115.875 208.839844 116.136719 208.839844 116.414062 L 208.839844 122.644531 L 190.148438 122.644531 C 189.464844 122.644531 188.789062 122.710938 188.121094 122.84375 C 187.453125 122.976562 186.804688 123.175781 186.175781 123.4375 C 185.546875 123.699219 184.949219 124.019531 184.382812 124.398438 C 183.8125 124.777344 183.289062 125.207031 182.808594 125.6875 C 182.324219 126.171875 181.894531 126.695312 181.515625 127.261719 C 181.136719 127.828125 180.816406 128.425781 180.558594 129.054688 C 180.296875 129.683594 180.097656 130.335938 179.964844 131.003906 C 179.832031 131.671875 179.765625 132.347656 179.765625 133.027344 L 179.765625 170.410156 C 179.765625 171.089844 179.832031 171.765625 179.964844 172.433594 C 180.097656 173.101562 180.296875 173.75 180.558594 174.382812 C 180.816406 175.011719 181.136719 175.609375 181.515625 176.175781 C 181.894531 176.742188 182.324219 177.265625 182.808594 177.75 C 183.289062 178.230469 183.8125 178.660156 184.382812 179.039062 C 184.949219 179.417969 185.546875 179.738281 186.175781 180 C 186.804688 180.261719 187.453125 180.457031 188.121094 180.589844 C 188.789062 180.726562 189.464844 180.792969 190.148438 180.792969 L 201.496094 180.792969 L 209.1875 192.328125 C 209.28125 192.46875 209.390625 192.597656 209.519531 192.714844 C 209.644531 192.828125 209.785156 192.925781 209.933594 193.007812 C 210.085938 193.085938 210.242188 193.148438 210.410156 193.191406 C 210.574219 193.230469 210.742188 193.253906 210.914062 193.253906 C 211.085938 193.253906 211.253906 193.230469 211.417969 193.191406 C 211.585938 193.148438 211.742188 193.085938 211.894531 193.007812 C 212.046875 192.925781 212.183594 192.828125 212.308594 192.714844 C 212.4375 192.597656 212.546875 192.46875 212.644531 192.328125 L 220.332031 180.792969 L 231.683594 180.792969 C 232.363281 180.792969 233.039062 180.726562 233.707031 180.589844 C 234.375 180.457031 235.023438 180.261719 235.652344 180 C 236.285156 179.738281 236.882812 179.417969 237.449219 179.039062 C 238.015625 178.660156 238.539062 178.230469 239.023438 177.75 C 239.503906 177.265625 239.933594 176.742188 240.3125 176.175781 C 240.691406 175.609375 241.011719 175.011719 241.273438 174.382812 C 241.535156 173.75 241.730469 173.101562 241.863281 172.433594 C 242 171.765625 242.066406 171.089844 242.066406 170.410156 L 242.066406 133.027344 C 242.066406 132.347656 242 131.671875 241.863281 131.003906 C 241.730469 130.335938 241.535156 129.683594 241.273438 129.054688 C 241.011719 128.425781 240.691406 127.828125 240.3125 127.261719 C 239.933594 126.695312 239.503906 126.171875 239.023438 125.6875 C 238.539062 125.207031 238.015625 124.777344 237.449219 124.398438 C 236.882812 124.019531 236.285156 123.699219 235.652344 123.4375 C 235.023438 123.175781 234.375 122.976562 233.707031 122.84375 C 233.039062 122.710938 232.363281 122.644531 231.683594 122.644531 Z M 237.914062 170.410156 C 237.910156 170.816406 237.871094 171.222656 237.792969 171.625 C 237.710938 172.023438 237.59375 172.414062 237.4375 172.792969 C 237.28125 173.167969 237.085938 173.527344 236.859375 173.867188 C 236.632812 174.207031 236.375 174.523438 236.085938 174.8125 C 235.796875 175.101562 235.480469 175.359375 235.140625 175.585938 C 234.800781 175.8125 234.441406 176.007812 234.066406 176.164062 C 233.6875 176.320312 233.296875 176.4375 232.898438 176.519531 C 232.496094 176.597656 232.089844 176.636719 231.683594 176.640625 L 219.222656 176.640625 C 218.875 176.640625 218.546875 176.722656 218.242188 176.886719 C 217.9375 177.050781 217.6875 177.273438 217.492188 177.5625 L 210.914062 187.433594 L 204.335938 177.5625 C 204.144531 177.273438 203.894531 177.050781 203.585938 176.886719 C 203.28125 176.722656 202.953125 176.640625 202.609375 176.640625 L 190.148438 176.640625 C 189.738281 176.636719 189.332031 176.597656 188.933594 176.519531 C 188.53125 176.4375 188.140625 176.320312 187.765625 176.164062 C 187.386719 176.007812 187.027344 175.8125 186.6875 175.585938 C 186.347656 175.359375 186.035156 175.101562 185.742188 174.8125 C 185.453125 174.523438 185.195312 174.207031 184.96875 173.867188 C 184.742188 173.527344 184.550781 173.167969 184.394531 172.792969 C 184.238281 172.414062 184.117188 172.023438 184.039062 171.625 C 183.957031 171.222656 183.917969 170.816406 183.917969 170.410156 L 183.917969 164.179688 L 237.914062 164.179688 Z M 237.914062 160.023438 L 183.917969 160.023438 L 183.917969 133.027344 C 183.917969 132.617188 183.957031 132.214844 184.039062 131.8125 C 184.117188 131.410156 184.238281 131.023438 184.394531 130.644531 C 184.550781 130.265625 184.742188 129.90625 184.96875 129.566406 C 185.195312 129.226562 185.453125 128.914062 185.742188 128.625 C 186.035156 128.335938 186.347656 128.078125 186.6875 127.847656 C 187.027344 127.621094 187.386719 127.429688 187.765625 127.273438 C 188.140625 127.117188 188.53125 127 188.933594 126.917969 C 189.332031 126.839844 189.738281 126.796875 190.148438 126.796875 L 231.683594 126.796875 C 232.089844 126.796875 232.496094 126.839844 232.898438 126.917969 C 233.296875 127 233.6875 127.117188 234.066406 127.273438 C 234.441406 127.429688 234.800781 127.621094 235.140625 127.847656 C 235.480469 128.078125 235.796875 128.335938 236.085938 128.625 C 236.375 128.914062 236.632812 129.226562 236.859375 129.566406 C 237.085938 129.90625 237.28125 130.265625 237.4375 130.644531 C 237.59375 131.023438 237.710938 131.410156 237.792969 131.8125 C 237.871094 132.214844 237.910156 132.617188 237.914062 133.027344 Z M 202.609375 145.488281 C 202.609375 145.761719 202.582031 146.03125 202.527344 146.296875 C 202.476562 146.566406 202.394531 146.824219 202.292969 147.078125 C 202.1875 147.328125 202.058594 147.570312 201.90625 147.796875 C 201.757812 148.023438 201.585938 148.230469 201.390625 148.425781 C 201.199219 148.617188 200.988281 148.789062 200.761719 148.941406 C 200.535156 149.09375 200.296875 149.222656 200.042969 149.324219 C 199.792969 149.429688 199.53125 149.507812 199.265625 149.5625 C 198.996094 149.613281 198.726562 149.640625 198.453125 149.640625 C 198.183594 149.640625 197.910156 149.613281 197.644531 149.5625 C 197.375 149.507812 197.117188 149.429688 196.863281 149.324219 C 196.613281 149.222656 196.375 149.09375 196.148438 148.941406 C 195.921875 148.789062 195.710938 148.617188 195.515625 148.425781 C 195.324219 148.230469 195.152344 148.023438 195 147.796875 C 194.847656 147.570312 194.722656 147.328125 194.617188 147.078125 C 194.511719 146.824219 194.433594 146.566406 194.378906 146.296875 C 194.328125 146.03125 194.300781 145.761719 194.300781 145.488281 C 194.300781 145.214844 194.328125 144.945312 194.378906 144.675781 C 194.433594 144.410156 194.511719 144.152344 194.617188 143.898438 C 194.722656 143.648438 194.847656 143.40625 195 143.179688 C 195.152344 142.953125 195.324219 142.742188 195.515625 142.550781 C 195.710938 142.359375 195.921875 142.1875 196.148438 142.035156 C 196.375 141.882812 196.613281 141.753906 196.863281 141.652344 C 197.117188 141.546875 197.375 141.46875 197.644531 141.414062 C 197.910156 141.359375 198.183594 141.335938 198.453125 141.335938 C 198.726562 141.335938 198.996094 141.359375 199.265625 141.414062 C 199.53125 141.46875 199.792969 141.546875 200.042969 141.652344 C 200.296875 141.753906 200.535156 141.882812 200.761719 142.035156 C 200.988281 142.1875 201.199219 142.359375 201.390625 142.550781 C 201.585938 142.742188 201.757812 142.953125 201.90625 143.179688 C 202.058594 143.40625 202.1875 143.648438 202.292969 143.898438 C 202.394531 144.152344 202.476562 144.410156 202.527344 144.675781 C 202.582031 144.945312 202.609375 145.214844 202.609375 145.488281 Z M 227.527344 145.488281 C 227.527344 145.761719 227.503906 146.03125 227.449219 146.296875 C 227.394531 146.566406 227.316406 146.824219 227.210938 147.078125 C 227.109375 147.328125 226.980469 147.570312 226.828125 147.796875 C 226.675781 148.023438 226.503906 148.230469 226.3125 148.425781 C 226.121094 148.617188 225.910156 148.789062 225.683594 148.941406 C 225.457031 149.09375 225.214844 149.222656 224.964844 149.324219 C 224.710938 149.429688 224.453125 149.507812 224.183594 149.5625 C 223.917969 149.613281 223.648438 149.640625 223.375 149.640625 C 223.101562 149.640625 222.832031 149.613281 222.566406 149.5625 C 222.296875 149.507812 222.039062 149.429688 221.785156 149.324219 C 221.535156 149.222656 221.292969 149.09375 221.066406 148.941406 C 220.839844 148.789062 220.632812 148.617188 220.4375 148.425781 C 220.246094 148.230469 220.074219 148.023438 219.921875 147.796875 C 219.769531 147.570312 219.640625 147.328125 219.539062 147.078125 C 219.433594 146.824219 219.355469 146.566406 219.300781 146.296875 C 219.25 146.03125 219.222656 145.761719 219.222656 145.488281 C 219.222656 145.214844 219.25 144.945312 219.300781 144.675781 C 219.355469 144.410156 219.433594 144.152344 219.539062 143.898438 C 219.640625 143.648438 219.769531 143.40625 219.921875 143.179688 C 220.074219 142.953125 220.246094 142.742188 220.4375 142.550781 C 220.632812 142.359375 220.839844 142.1875 221.066406 142.035156 C 221.292969 141.882812 221.535156 141.753906 221.785156 141.652344 C 222.039062 141.546875 222.296875 141.46875 222.566406 141.414062 C 222.832031 141.359375 223.101562 141.335938 223.375 141.335938 C 223.648438 141.335938 223.917969 141.359375 224.183594 141.414062 C 224.453125 141.46875 224.710938 141.546875 224.964844 141.652344 C 225.214844 141.753906 225.457031 141.882812 225.683594 142.035156 C 225.910156 142.1875 226.121094 142.359375 226.3125 142.550781 C 226.503906 142.742188 226.675781 142.953125 226.828125 143.179688 C 226.980469 143.40625 227.109375 143.648438 227.210938 143.898438 C 227.316406 144.152344 227.394531 144.410156 227.449219 144.675781 C 227.503906 144.945312 227.527344 145.214844 227.527344 145.488281 Z M 171.457031 137.179688 L 171.457031 153.792969 C 171.457031 154.070312 171.402344 154.335938 171.300781 154.589844 C 171.195312 154.84375 171.042969 155.070312 170.847656 155.261719 C 170.652344 155.457031 170.429688 155.609375 170.175781 155.714844 C 169.921875 155.820312 169.65625 155.871094 169.378906 155.871094 C 169.105469 155.871094 168.839844 155.820312 168.585938 155.714844 C 168.332031 155.609375 168.105469 155.457031 167.910156 155.261719 C 167.71875 155.070312 167.566406 154.84375 167.460938 154.589844 C 167.355469 154.335938 167.304688 154.070312 167.304688 153.792969 L 167.304688 137.179688 C 167.304688 136.90625 167.355469 136.640625 167.460938 136.386719 C 167.566406 136.132812 167.71875 135.90625 167.910156 135.710938 C 168.105469 135.519531 168.332031 135.367188 168.585938 135.261719 C 168.839844 135.15625 169.105469 135.105469 169.378906 135.105469 C 169.65625 135.105469 169.921875 135.15625 170.175781 135.261719 C 170.429688 135.367188 170.652344 135.519531 170.847656 135.710938 C 171.042969 135.90625 171.195312 136.132812 171.300781 136.386719 C 171.402344 136.640625 171.457031 136.90625 171.457031 137.179688 Z M 254.527344 137.179688 L 254.527344 153.792969 C 254.527344 154.070312 254.472656 154.335938 254.367188 154.589844 C 254.261719 154.84375 254.113281 155.070312 253.917969 155.261719 C 253.722656 155.457031 253.5 155.609375 253.242188 155.714844 C 252.988281 155.820312 252.726562 155.871094 252.449219 155.871094 C 252.175781 155.871094 251.910156 155.820312 251.65625 155.714844 C 251.398438 155.609375 251.175781 155.457031 250.980469 155.261719 C 250.785156 155.070312 250.636719 154.84375 250.53125 154.589844 C 250.425781 154.335938 250.371094 154.070312 250.371094 153.792969 L 250.371094 137.179688 C 250.371094 136.90625 250.425781 136.640625 250.53125 136.386719 C 250.636719 136.132812 250.785156 135.90625 250.980469 135.710938 C 251.175781 135.519531 251.398438 135.367188 251.65625 135.261719 C 251.910156 135.15625 252.175781 135.105469 252.449219 135.105469 C 252.726562 135.105469 252.988281 135.15625 253.242188 135.261719 C 253.5 135.367188 253.722656 135.519531 253.917969 135.710938 C 254.113281 135.90625 254.261719 136.132812 254.367188 136.386719 C 254.472656 136.640625 254.527344 136.90625 254.527344 137.179688 Z M 254.527344 137.179688 " fill-opacity="1" fill-rule="nonzero"/></g><g fill="#000000" fill-opacity="1"><g transform="translate(116.541215, 235.837381)"><g><path d="M 31.625 0 L 28.5 -10.203125 L 12.90625 -10.203125 L 9.78125 0 L 0 0 L 15.125 -43.015625 L 26.21875 -43.015625 L 41.40625 0 Z M 26.34375 -17.8125 L 23.21875 -27.78125 C 23.019531 -28.457031 22.757812 -29.316406 22.4375 -30.359375 C 22.113281 -31.398438 21.789062 -32.457031 21.46875 -33.53125 C 21.15625 -34.613281 20.898438 -35.554688 20.703125 -36.359375 C 20.503906 -35.554688 20.234375 -34.566406 19.890625 -33.390625 C 19.546875 -32.210938 19.222656 -31.09375 18.921875 -30.03125 C 18.628906 -28.96875 18.398438 -28.21875 18.234375 -27.78125 L 15.1875 -17.8125 Z M 26.34375 -17.8125 "/></g></g></g><g fill="#000000" fill-opacity="1"><g transform="translate(157.941176, 235.837381)"><g><path d="M 21.421875 0 L 1.921875 0 L 1.921875 -5.15625 L 7.140625 -7.5625 L 7.140625 -35.28125 L 1.921875 -37.6875 L 1.921875 -42.84375 L 21.421875 -42.84375 L 21.421875 -37.6875 L 16.203125 -35.28125 L 16.203125 -7.5625 L 21.421875 -5.15625 Z M 21.421875 0 "/></g></g></g><g fill="#000000" fill-opacity="1"><g transform="translate(181.281148, 235.837381)"><g><path d="M 40.921875 -21.84375 C 40.921875 -14.601562 38.859375 -9.148438 34.734375 -5.484375 C 30.617188 -1.828125 24.878906 0 17.515625 0 L 5.40625 0 L 5.40625 -42.84375 L 18.84375 -42.84375 C 23.320312 -42.84375 27.207031 -42.039062 30.5 -40.4375 C 33.800781 -38.84375 36.363281 -36.484375 38.1875 -33.359375 C 40.007812 -30.242188 40.921875 -26.40625 40.921875 -21.84375 Z M 31.5 -21.59375 C 31.5 -26.320312 30.457031 -29.804688 28.375 -32.046875 C 26.300781 -34.285156 23.28125 -35.40625 19.3125 -35.40625 L 14.453125 -35.40625 L 14.453125 -7.5 L 18.359375 -7.5 C 27.117188 -7.5 31.5 -12.195312 31.5 -21.59375 Z M 31.5 -21.59375 "/></g></g></g><g fill="#000000" fill-opacity="1"><g transform="translate(225.681108, 235.837381)"><g><path d="M 58.015625 -42.84375 L 47.09375 0 L 36.78125 0 L 30.953125 -22.5 C 30.835938 -22.9375 30.6875 -23.59375 30.5 -24.46875 C 30.320312 -25.351562 30.125 -26.316406 29.90625 -27.359375 C 29.6875 -28.398438 29.488281 -29.378906 29.3125 -30.296875 C 29.132812 -31.222656 29.023438 -31.960938 28.984375 -32.515625 C 28.941406 -31.960938 28.828125 -31.222656 28.640625 -30.296875 C 28.460938 -29.378906 28.273438 -28.410156 28.078125 -27.390625 C 27.878906 -26.367188 27.679688 -25.40625 27.484375 -24.5 C 27.285156 -23.601562 27.125 -22.914062 27 -22.4375 L 21.234375 0 L 10.921875 0 L 0 -42.84375 L 8.9375 -42.84375 L 14.40625 -19.4375 C 14.644531 -18.519531 14.898438 -17.359375 15.171875 -15.953125 C 15.453125 -14.554688 15.710938 -13.15625 15.953125 -11.75 C 16.191406 -10.351562 16.375 -9.175781 16.5 -8.21875 C 16.625 -9.21875 16.804688 -10.40625 17.046875 -11.78125 C 17.285156 -13.164062 17.535156 -14.507812 17.796875 -15.8125 C 18.054688 -17.113281 18.285156 -18.125 18.484375 -18.84375 L 24.71875 -42.84375 L 33.296875 -42.84375 L 39.546875 -18.84375 C 39.742188 -18.125 39.972656 -17.113281 40.234375 -15.8125 C 40.492188 -14.507812 40.742188 -13.15625 40.984375 -11.75 C 41.222656 -10.351562 41.398438 -9.175781 41.515625 -8.21875 C 41.640625 -9.21875 41.820312 -10.40625 42.0625 -11.78125 C 42.300781 -13.164062 42.566406 -14.546875 42.859375 -15.921875 C 43.160156 -17.304688 43.414062 -18.476562 43.625 -19.4375 L 49.078125 -42.84375 Z M 58.015625 -42.84375 "/></g></g></g></svg>